<svg id="svg" version="1.1" xmlns="http://www.w3.org/2000/svg" xmlns:xlink="http://www.w3.org/1999/xlink" width="400" height="405" viewBox="0, 0, 400,405"><g id="svgg"><path id="path0" d="M6.000 0.400 C 6.000 0.620,5.640 0.800,5.200 0.800 C 4.676 0.800,4.400 1.067,4.400 1.572 C 4.400 2.068,4.078 2.390,3.500 2.472 C 2.922 2.554,2.554 2.922,2.472 3.500 C 2.390 4.078,2.068 4.400,1.572 4.400 C 1.067 4.400,0.800 4.676,0.800 5.200 C 0.800 5.640,0.620 6.000,0.400 6.000 C 0.171 6.000,0.000 7.211,0.000 8.833 C 0.000 11.922,0.886 12.701,1.127 9.825 C 1.219 8.729,1.467 8.255,2.027 8.109 C 2.452 7.998,2.800 7.601,2.800 7.227 C 2.800 6.344,6.344 2.800,7.227 2.800 C 7.601 2.800,7.998 2.452,8.109 2.027 C 8.255 1.467,8.729 1.219,9.825 1.127 C 12.701 0.886,11.922 0.000,8.833 0.000 C 7.211 0.000,6.000 0.171,6.000 0.400 M388.800 0.600 C 388.800 1.018,389.221 1.200,390.186 1.200 C 391.162 1.200,391.698 1.436,392.000 2.000 C 392.235 2.440,392.659 2.800,392.940 2.800 C 393.607 2.800,397.200 6.393,397.200 7.060 C 397.200 7.341,397.560 7.765,398.000 8.000 C 398.456 8.244,398.800 8.838,398.800 9.381 C 398.800 10.593,399.182 11.600,399.643 11.600 C 399.839 11.600,400.000 10.340,400.000 8.800 C 400.000 7.200,399.829 6.000,399.600 6.000 C 399.380 6.000,399.200 5.640,399.200 5.200 C 399.200 4.667,398.933 4.400,398.400 4.400 C 397.855 4.400,397.600 4.133,397.600 3.563 C 397.600 3.066,397.280 2.641,396.813 2.519 C 396.381 2.406,395.918 1.973,395.786 1.557 C 395.654 1.141,395.198 0.800,394.773 0.800 C 394.348 0.800,394.000 0.620,394.000 0.400 C 394.000 0.174,392.867 0.000,391.400 0.000 C 389.356 0.000,388.800 0.128,388.800 0.600 M34.549 33.472 C 33.926 33.597,33.632 34.039,33.453 35.121 C 33.014 37.777,33.168 367.267,33.609 368.855 C 34.174 370.890,32.413 370.788,67.120 370.795 C 101.830 370.801,100.533 370.896,100.995 368.299 C 101.528 365.306,101.019 34.459,100.480 33.920 C 99.980 33.420,36.950 32.992,34.549 33.472 M131.289 33.823 L 130.400 34.445 130.400 67.000 L 130.400 99.555 131.289 100.177 C 132.084 100.734,138.740 100.800,194.489 100.800 C 256.424 100.800,256.805 100.805,257.606 101.606 C 258.483 102.483,258.371 104.047,257.346 105.231 C 257.046 105.579,256.800 106.020,256.800 106.212 C 256.800 106.404,255.738 108.730,254.439 111.380 C 253.141 114.031,251.410 117.640,250.593 119.400 C 249.776 121.160,247.779 125.318,246.154 128.640 C 244.529 131.962,243.200 134.865,243.200 135.091 C 243.200 135.317,242.948 135.711,242.639 135.967 C 242.331 136.223,241.962 136.896,241.820 137.462 C 241.678 138.028,239.704 142.296,237.433 146.946 C 235.162 151.596,232.670 156.750,231.895 158.400 C 231.119 160.050,229.279 163.920,227.806 167.000 C 226.332 170.080,224.673 173.590,224.119 174.800 C 223.564 176.010,222.951 177.270,222.755 177.600 C 222.559 177.930,221.973 179.100,221.453 180.200 C 219.933 183.413,216.509 190.562,213.600 196.600 C 212.115 199.680,210.227 203.640,209.403 205.400 C 208.580 207.160,206.506 211.480,204.795 215.000 C 203.084 218.520,201.109 222.660,200.407 224.200 C 198.782 227.760,193.242 239.207,192.760 240.000 C 192.559 240.330,192.283 240.870,192.145 241.200 C 191.736 242.183,188.885 248.231,186.113 254.000 C 184.685 256.970,183.094 260.300,182.577 261.400 C 182.060 262.500,179.850 267.090,177.665 271.600 C 175.481 276.110,172.862 281.555,171.847 283.700 C 170.831 285.845,169.169 289.355,168.153 291.500 C 167.137 293.645,165.050 298.010,163.515 301.200 C 161.980 304.390,160.183 308.170,159.523 309.600 C 158.348 312.144,157.987 312.881,157.223 314.300 C 156.427 315.778,149.169 331.049,147.955 333.800 C 147.761 334.240,147.429 334.870,147.219 335.200 C 147.008 335.530,146.002 337.600,144.984 339.800 C 143.965 342.000,142.966 344.070,142.764 344.400 C 142.561 344.730,142.283 345.270,142.146 345.600 C 141.317 347.596,133.498 364.011,132.392 366.079 C 131.363 368.002,131.357 369.842,132.377 370.388 C 134.059 371.288,365.570 370.729,366.232 369.824 C 367.281 368.389,367.058 304.658,366.000 303.600 C 365.207 302.807,364.663 302.800,302.500 302.794 C 239.116 302.788,238.896 302.783,238.723 301.383 C 238.628 300.608,239.044 299.682,245.278 286.800 C 247.034 283.170,249.157 278.760,249.995 277.000 C 250.833 275.240,252.683 271.370,254.107 268.400 C 255.530 265.430,256.820 262.595,256.974 262.100 C 257.128 261.605,257.402 261.200,257.584 261.200 C 257.765 261.200,258.028 260.741,258.169 260.181 C 258.310 259.620,260.197 255.525,262.362 251.081 C 264.528 246.636,267.200 241.110,268.301 238.800 C 269.402 236.490,271.425 232.260,272.797 229.400 C 274.169 226.540,275.737 223.210,276.280 222.000 C 276.824 220.790,277.434 219.530,277.635 219.200 C 277.837 218.870,278.176 218.197,278.389 217.705 C 278.803 216.749,281.762 210.590,286.801 200.200 C 288.508 196.680,290.387 192.720,290.977 191.400 C 291.567 190.080,292.219 188.730,292.427 188.400 C 292.635 188.070,292.913 187.530,293.045 187.200 C 293.177 186.870,294.687 183.720,296.401 180.200 C 298.114 176.680,300.005 172.720,300.603 171.400 C 301.200 170.080,303.172 165.940,304.984 162.200 C 306.796 158.460,308.828 154.230,309.501 152.800 C 310.174 151.370,311.978 147.590,313.512 144.400 C 315.045 141.210,316.889 137.340,317.610 135.800 C 318.331 134.260,320.313 130.120,322.016 126.600 C 328.611 112.967,330.546 108.927,331.435 106.937 C 331.942 105.802,332.547 104.756,332.779 104.613 C 333.010 104.470,333.200 104.051,333.200 103.682 C 333.200 103.312,334.710 99.948,336.555 96.205 C 338.400 92.462,340.391 88.320,340.979 87.000 C 341.568 85.680,342.218 84.330,342.425 84.000 C 342.632 83.670,342.994 82.950,343.228 82.400 C 343.462 81.850,344.969 78.700,346.576 75.400 C 348.183 72.100,350.081 68.140,350.792 66.600 C 351.504 65.060,353.484 60.920,355.192 57.400 C 358.421 50.746,361.396 44.499,362.030 43.044 C 362.232 42.580,362.572 41.930,362.784 41.600 C 363.405 40.634,365.223 36.513,365.585 35.252 C 365.873 34.247,365.787 34.031,364.940 33.646 C 363.200 32.852,132.424 33.027,131.289 33.823 M0.000 396.200 C 0.000 397.667,0.174 398.800,0.400 398.800 C 0.620 398.800,0.800 399.148,0.800 399.573 C 0.800 399.998,1.141 400.454,1.557 400.586 C 1.973 400.718,2.406 401.181,2.519 401.613 C 2.641 402.080,3.066 402.400,3.563 402.400 C 4.133 402.400,4.400 402.655,4.400 403.200 C 4.400 403.733,4.667 404.000,5.200 404.000 C 5.640 404.000,6.000 404.180,6.000 404.400 C 6.000 404.629,7.200 404.800,8.800 404.800 C 10.340 404.800,11.600 404.639,11.600 404.443 C 11.600 403.982,10.593 403.600,9.381 403.600 C 8.838 403.600,8.244 403.256,8.000 402.800 C 7.765 402.360,7.341 402.000,7.060 402.000 C 6.393 402.000,2.800 398.407,2.800 397.740 C 2.800 397.459,2.440 397.035,2.000 396.800 C 1.436 396.498,1.200 395.962,1.200 394.986 C 1.200 394.021,1.018 393.600,0.600 393.600 C 0.128 393.600,0.000 394.156,0.000 396.200 M399.067 393.867 C 398.920 394.013,398.800 394.637,398.800 395.253 C 398.800 395.962,398.507 396.528,398.000 396.800 C 397.560 397.035,397.200 397.474,397.200 397.775 C 397.200 398.466,393.644 402.000,392.948 402.000 C 392.662 402.000,392.242 402.349,392.014 402.775 C 391.768 403.234,391.083 403.600,390.330 403.675 C 387.774 403.927,388.578 404.800,391.367 404.800 C 392.856 404.800,394.000 404.626,394.000 404.400 C 394.000 404.180,394.348 404.000,394.773 404.000 C 395.198 404.000,395.660 403.640,395.800 403.200 C 395.940 402.760,396.329 402.400,396.664 402.400 C 397.000 402.400,397.367 402.046,397.481 401.613 C 397.594 401.181,398.027 400.718,398.443 400.586 C 398.859 400.454,399.200 399.998,399.200 399.573 C 399.200 399.148,399.380 398.800,399.600 398.800 C 399.826 398.800,400.000 397.667,400.000 396.200 C 400.000 393.802,399.752 393.182,399.067 393.867 " stroke="none" fill="#ffffff" fill-rule="evenodd"></path><path id="path1" d="M11.455 0.600 C 11.309 0.981,10.695 1.200,9.775 1.200 C 8.662 1.200,8.277 1.386,8.116 2.000 C 8.001 2.440,7.601 2.800,7.227 2.800 C 6.344 2.800,2.800 6.344,2.800 7.227 C 2.800 7.601,2.440 8.001,2.000 8.116 C 1.386 8.277,1.200 8.662,1.200 9.775 C 1.200 10.695,0.981 11.309,0.600 11.455 C -0.314 11.806,-0.314 393.600,0.600 393.600 C 1.018 393.600,1.200 394.021,1.200 394.986 C 1.200 395.962,1.436 396.498,2.000 396.800 C 2.440 397.035,2.800 397.459,2.800 397.740 C 2.800 398.407,6.393 402.000,7.060 402.000 C 7.341 402.000,7.765 402.360,8.000 402.800 C 8.277 403.317,8.838 403.600,9.586 403.600 C 10.222 403.600,11.013 403.870,11.343 404.200 C 12.257 405.114,388.594 405.114,388.945 404.200 C 389.078 403.851,389.677 403.600,390.373 403.600 C 391.162 403.600,391.718 403.327,392.000 402.800 C 392.235 402.360,392.662 402.000,392.948 402.000 C 393.644 402.000,397.200 398.466,397.200 397.775 C 397.200 397.474,397.560 397.035,398.000 396.800 C 398.527 396.518,398.800 395.962,398.800 395.173 C 398.800 394.477,399.051 393.878,399.400 393.745 C 400.314 393.394,400.314 12.257,399.400 11.343 C 399.070 11.013,398.800 10.222,398.800 9.586 C 398.800 8.838,398.517 8.277,398.000 8.000 C 397.560 7.765,397.200 7.341,397.200 7.060 C 397.200 6.393,393.607 2.800,392.940 2.800 C 392.659 2.800,392.235 2.440,392.000 2.000 C 391.698 1.436,391.162 1.200,390.186 1.200 C 389.221 1.200,388.800 1.018,388.800 0.600 C 388.800 -0.314,11.806 -0.314,11.455 0.600 M100.480 33.920 C 101.019 34.459,101.528 365.306,100.995 368.299 C 100.533 370.896,101.830 370.801,67.120 370.795 C 32.413 370.788,34.174 370.890,33.609 368.855 C 33.168 367.267,33.014 37.777,33.453 35.121 C 33.632 34.039,33.926 33.597,34.549 33.472 C 36.950 32.992,99.980 33.420,100.480 33.920 M364.940 33.646 C 365.787 34.031,365.873 34.247,365.585 35.252 C 365.223 36.513,363.405 40.634,362.784 41.600 C 362.572 41.930,362.232 42.580,362.030 43.044 C 361.396 44.499,358.421 50.746,355.192 57.400 C 353.484 60.920,351.504 65.060,350.792 66.600 C 350.081 68.140,348.183 72.100,346.576 75.400 C 344.969 78.700,343.462 81.850,343.228 82.400 C 342.994 82.950,342.632 83.670,342.425 84.000 C 342.218 84.330,341.568 85.680,340.979 87.000 C 340.391 88.320,338.400 92.462,336.555 96.205 C 334.710 99.948,333.200 103.312,333.200 103.682 C 333.200 104.051,333.010 104.470,332.779 104.613 C 332.547 104.756,331.942 105.802,331.435 106.937 C 330.546 108.927,328.611 112.967,322.016 126.600 C 320.313 130.120,318.331 134.260,317.610 135.800 C 316.889 137.340,315.045 141.210,313.512 144.400 C 311.978 147.590,310.174 151.370,309.501 152.800 C 308.828 154.230,306.796 158.460,304.984 162.200 C 303.172 165.940,301.200 170.080,300.603 171.400 C 300.005 172.720,298.114 176.680,296.401 180.200 C 294.687 183.720,293.177 186.870,293.045 187.200 C 292.913 187.530,292.635 188.070,292.427 188.400 C 292.219 188.730,291.567 190.080,290.977 191.400 C 290.387 192.720,288.508 196.680,286.801 200.200 C 281.762 210.590,278.803 216.749,278.389 217.705 C 278.176 218.197,277.837 218.870,277.635 219.200 C 277.434 219.530,276.824 220.790,276.280 222.000 C 275.737 223.210,274.169 226.540,272.797 229.400 C 271.425 232.260,269.402 236.490,268.301 238.800 C 267.200 241.110,264.528 246.636,262.362 251.081 C 260.197 255.525,258.310 259.620,258.169 260.181 C 258.028 260.741,257.765 261.200,257.584 261.200 C 257.402 261.200,257.128 261.605,256.974 262.100 C 256.820 262.595,255.530 265.430,254.107 268.400 C 252.683 271.370,250.833 275.240,249.995 277.000 C 249.157 278.760,247.034 283.170,245.278 286.800 C 239.044 299.682,238.628 300.608,238.723 301.383 C 238.896 302.783,239.116 302.788,302.500 302.794 C 364.663 302.800,365.207 302.807,366.000 303.600 C 367.058 304.658,367.281 368.389,366.232 369.824 C 365.570 370.729,134.059 371.288,132.377 370.388 C 131.357 369.842,131.363 368.002,132.392 366.079 C 133.498 364.011,141.317 347.596,142.146 345.600 C 142.283 345.270,142.561 344.730,142.764 344.400 C 142.966 344.070,143.965 342.000,144.984 339.800 C 146.002 337.600,147.008 335.530,147.219 335.200 C 147.429 334.870,147.761 334.240,147.955 333.800 C 149.169 331.049,156.427 315.778,157.223 314.300 C 157.987 312.881,158.348 312.144,159.523 309.600 C 160.183 308.170,161.980 304.390,163.515 301.200 C 165.050 298.010,167.137 293.645,168.153 291.500 C 169.169 289.355,170.831 285.845,171.847 283.700 C 172.862 281.555,175.481 276.110,177.665 271.600 C 179.850 267.090,182.060 262.500,182.577 261.400 C 183.094 260.300,184.685 256.970,186.113 254.000 C 188.885 248.231,191.736 242.183,192.145 241.200 C 192.283 240.870,192.559 240.330,192.760 240.000 C 193.242 239.207,198.782 227.760,200.407 224.200 C 201.109 222.660,203.084 218.520,204.795 215.000 C 206.506 211.480,208.580 207.160,209.403 205.400 C 210.227 203.640,212.115 199.680,213.600 196.600 C 216.509 190.562,219.933 183.413,221.453 180.200 C 221.973 179.100,222.559 177.930,222.755 177.600 C 222.951 177.270,223.564 176.010,224.119 174.800 C 224.673 173.590,226.332 170.080,227.806 167.000 C 229.279 163.920,231.119 160.050,231.895 158.400 C 232.670 156.750,235.162 151.596,237.433 146.946 C 239.704 142.296,241.678 138.028,241.820 137.462 C 241.962 136.896,242.331 136.223,242.639 135.967 C 242.948 135.711,243.200 135.317,243.200 135.091 C 243.200 134.865,244.529 131.962,246.154 128.640 C 247.779 125.318,249.776 121.160,250.593 119.400 C 251.410 117.640,253.141 114.031,254.439 111.380 C 255.738 108.730,256.800 106.404,256.800 106.212 C 256.800 106.020,257.046 105.579,257.346 105.231 C 258.371 104.047,258.483 102.483,257.606 101.606 C 256.805 100.805,256.424 100.800,194.489 100.800 C 138.740 100.800,132.084 100.734,131.289 100.177 L 130.400 99.555 130.400 67.000 L 130.400 34.445 131.289 33.823 C 132.424 33.027,363.200 32.852,364.940 33.646 " stroke="none" fill="#043cfc" fill-rule="evenodd"></path></g></svg>